<mxfile host="app.diagrams.net" agent="Mozilla/5.0 (Windows NT 10.0; Win64; x64) AppleWebKit/537.36 (KHTML, like Gecko) Chrome/143.0.0.0 Safari/537.36" version="28.2.8">
  <diagram name="Page-1" id="LVbjmOCuxCsavz6oy3vh">
    <mxGraphModel dx="879" dy="520" grid="0" gridSize="10" guides="1" tooltips="1" connect="1" arrows="1" fold="1" page="1" pageScale="1" pageWidth="850" pageHeight="1100" math="0" shadow="0">
      <root>
        <mxCell id="0" />
        <mxCell id="1" parent="0" />
        <mxCell id="p4eUYUYx2-gPYo4XAFMZ-27" style="edgeStyle=orthogonalEdgeStyle;rounded=0;orthogonalLoop=1;jettySize=auto;html=1;exitX=0.5;exitY=1;exitDx=0;exitDy=0;dashed=1;" edge="1" parent="1" source="p4eUYUYx2-gPYo4XAFMZ-5" target="p4eUYUYx2-gPYo4XAFMZ-17">
          <mxGeometry relative="1" as="geometry" />
        </mxCell>
        <mxCell id="p4eUYUYx2-gPYo4XAFMZ-5" value="AppointmentUI" style="swimlane;fontStyle=1;align=center;verticalAlign=top;childLayout=stackLayout;horizontal=1;startSize=26;horizontalStack=0;resizeParent=1;resizeParentMax=0;resizeLast=0;collapsible=1;marginBottom=0;whiteSpace=wrap;html=1;" vertex="1" parent="1">
          <mxGeometry x="116" y="120" width="160" height="72" as="geometry" />
        </mxCell>
        <mxCell id="p4eUYUYx2-gPYo4XAFMZ-6" value="+ showSchedule()&lt;div&gt;+ createAppointment()&lt;/div&gt;" style="text;strokeColor=none;fillColor=none;align=left;verticalAlign=top;spacingLeft=4;spacingRight=4;overflow=hidden;rotatable=0;points=[[0,0.5],[1,0.5]];portConstraint=eastwest;whiteSpace=wrap;html=1;" vertex="1" parent="p4eUYUYx2-gPYo4XAFMZ-5">
          <mxGeometry y="26" width="160" height="38" as="geometry" />
        </mxCell>
        <mxCell id="p4eUYUYx2-gPYo4XAFMZ-7" value="" style="line;strokeWidth=1;fillColor=none;align=left;verticalAlign=middle;spacingTop=-1;spacingLeft=3;spacingRight=3;rotatable=0;labelPosition=right;points=[];portConstraint=eastwest;strokeColor=inherit;" vertex="1" parent="p4eUYUYx2-gPYo4XAFMZ-5">
          <mxGeometry y="64" width="160" height="8" as="geometry" />
        </mxCell>
        <mxCell id="p4eUYUYx2-gPYo4XAFMZ-26" style="edgeStyle=orthogonalEdgeStyle;rounded=0;orthogonalLoop=1;jettySize=auto;html=1;dashed=1;" edge="1" parent="1" source="p4eUYUYx2-gPYo4XAFMZ-17" target="p4eUYUYx2-gPYo4XAFMZ-24">
          <mxGeometry relative="1" as="geometry" />
        </mxCell>
        <mxCell id="p4eUYUYx2-gPYo4XAFMZ-17" value="OrderController" style="swimlane;fontStyle=1;align=center;verticalAlign=top;childLayout=stackLayout;horizontal=1;startSize=26;horizontalStack=0;resizeParent=1;resizeParentMax=0;resizeLast=0;collapsible=1;marginBottom=0;whiteSpace=wrap;html=1;" vertex="1" parent="1">
          <mxGeometry x="232" y="273" width="247" height="171" as="geometry" />
        </mxCell>
        <mxCell id="p4eUYUYx2-gPYo4XAFMZ-18" value="+createAppointment(appointmentRequest)&lt;br&gt;+getAppointmentById(orderId)&lt;br&gt;+cancelAppointment(orderId)" style="text;strokeColor=none;fillColor=none;align=left;verticalAlign=top;spacingLeft=4;spacingRight=4;overflow=hidden;rotatable=0;points=[[0,0.5],[1,0.5]];portConstraint=eastwest;whiteSpace=wrap;html=1;" vertex="1" parent="p4eUYUYx2-gPYo4XAFMZ-17">
          <mxGeometry y="26" width="247" height="64" as="geometry" />
        </mxCell>
        <mxCell id="p4eUYUYx2-gPYo4XAFMZ-19" value="" style="line;strokeWidth=1;fillColor=none;align=left;verticalAlign=middle;spacingTop=-1;spacingLeft=3;spacingRight=3;rotatable=0;labelPosition=right;points=[];portConstraint=eastwest;strokeColor=inherit;" vertex="1" parent="p4eUYUYx2-gPYo4XAFMZ-17">
          <mxGeometry y="90" width="247" height="4" as="geometry" />
        </mxCell>
        <mxCell id="p4eUYUYx2-gPYo4XAFMZ-20" value="- orderService&lt;br&gt;- scheduleInstanceService&lt;br&gt;- patientService&lt;br&gt;- paymentService" style="text;strokeColor=none;fillColor=none;align=left;verticalAlign=top;spacingLeft=4;spacingRight=4;overflow=hidden;rotatable=0;points=[[0,0.5],[1,0.5]];portConstraint=eastwest;whiteSpace=wrap;html=1;" vertex="1" parent="p4eUYUYx2-gPYo4XAFMZ-17">
          <mxGeometry y="94" width="247" height="77" as="geometry" />
        </mxCell>
        <mxCell id="p4eUYUYx2-gPYo4XAFMZ-21" value="AppointmentOrder" style="swimlane;fontStyle=1;align=center;verticalAlign=top;childLayout=stackLayout;horizontal=1;startSize=26;horizontalStack=0;resizeParent=1;resizeParentMax=0;resizeLast=0;collapsible=1;marginBottom=0;whiteSpace=wrap;html=1;" vertex="1" parent="1">
          <mxGeometry x="545" y="149" width="154" height="159" as="geometry" />
        </mxCell>
        <mxCell id="p4eUYUYx2-gPYo4XAFMZ-23" value="" style="line;strokeWidth=1;fillColor=none;align=left;verticalAlign=middle;spacingTop=-1;spacingLeft=3;spacingRight=3;rotatable=0;labelPosition=right;points=[];portConstraint=eastwest;strokeColor=inherit;" vertex="1" parent="p4eUYUYx2-gPYo4XAFMZ-21">
          <mxGeometry y="26" width="154" height="17" as="geometry" />
        </mxCell>
        <mxCell id="p4eUYUYx2-gPYo4XAFMZ-24" value="- orderId&lt;div&gt;- patientId&lt;/div&gt;&lt;div&gt;- doctorName&lt;/div&gt;&lt;div&gt;- scheduleTime&lt;br&gt;  - slotType&lt;br&gt;  - status()&lt;br&gt;  - fee&lt;/div&gt;" style="text;strokeColor=none;fillColor=none;align=left;verticalAlign=top;spacingLeft=4;spacingRight=4;overflow=hidden;rotatable=0;points=[[0,0.5],[1,0.5]];portConstraint=eastwest;whiteSpace=wrap;html=1;" vertex="1" parent="p4eUYUYx2-gPYo4XAFMZ-21">
          <mxGeometry y="43" width="154" height="116" as="geometry" />
        </mxCell>
        <mxCell id="p4eUYUYx2-gPYo4XAFMZ-28" style="edgeStyle=orthogonalEdgeStyle;rounded=0;orthogonalLoop=1;jettySize=auto;html=1;exitX=0.5;exitY=1;exitDx=0;exitDy=0;dashed=1;" edge="1" parent="1" source="p4eUYUYx2-gPYo4XAFMZ-29" target="p4eUYUYx2-gPYo4XAFMZ-33">
          <mxGeometry relative="1" as="geometry" />
        </mxCell>
        <mxCell id="p4eUYUYx2-gPYo4XAFMZ-29" value="DoctorWorkstationUI " style="swimlane;fontStyle=1;align=center;verticalAlign=top;childLayout=stackLayout;horizontal=1;startSize=26;horizontalStack=0;resizeParent=1;resizeParentMax=0;resizeLast=0;collapsible=1;marginBottom=0;whiteSpace=wrap;html=1;" vertex="1" parent="1">
          <mxGeometry x="939" y="142" width="211" height="72" as="geometry" />
        </mxCell>
        <mxCell id="p4eUYUYx2-gPYo4XAFMZ-30" value="+ showPatientHistoryList(patientId)&lt;br&gt;  + showVisitRecordDetail(visitId)" style="text;strokeColor=none;fillColor=none;align=left;verticalAlign=top;spacingLeft=4;spacingRight=4;overflow=hidden;rotatable=0;points=[[0,0.5],[1,0.5]];portConstraint=eastwest;whiteSpace=wrap;html=1;" vertex="1" parent="p4eUYUYx2-gPYo4XAFMZ-29">
          <mxGeometry y="26" width="211" height="38" as="geometry" />
        </mxCell>
        <mxCell id="p4eUYUYx2-gPYo4XAFMZ-31" value="" style="line;strokeWidth=1;fillColor=none;align=left;verticalAlign=middle;spacingTop=-1;spacingLeft=3;spacingRight=3;rotatable=0;labelPosition=right;points=[];portConstraint=eastwest;strokeColor=inherit;" vertex="1" parent="p4eUYUYx2-gPYo4XAFMZ-29">
          <mxGeometry y="64" width="211" height="8" as="geometry" />
        </mxCell>
        <mxCell id="p4eUYUYx2-gPYo4XAFMZ-32" style="edgeStyle=orthogonalEdgeStyle;rounded=0;orthogonalLoop=1;jettySize=auto;html=1;dashed=1;" edge="1" parent="1" source="p4eUYUYx2-gPYo4XAFMZ-33" target="p4eUYUYx2-gPYo4XAFMZ-39">
          <mxGeometry relative="1" as="geometry" />
        </mxCell>
        <mxCell id="p4eUYUYx2-gPYo4XAFMZ-43" style="edgeStyle=orthogonalEdgeStyle;rounded=0;orthogonalLoop=1;jettySize=auto;html=1;dashed=1;" edge="1" parent="1" source="p4eUYUYx2-gPYo4XAFMZ-33" target="p4eUYUYx2-gPYo4XAFMZ-42">
          <mxGeometry relative="1" as="geometry">
            <Array as="points">
              <mxPoint x="1276" y="378" />
              <mxPoint x="1276" y="500" />
            </Array>
          </mxGeometry>
        </mxCell>
        <mxCell id="p4eUYUYx2-gPYo4XAFMZ-33" value="VisitRecordController " style="swimlane;fontStyle=1;align=center;verticalAlign=top;childLayout=stackLayout;horizontal=1;startSize=26;horizontalStack=0;resizeParent=1;resizeParentMax=0;resizeLast=0;collapsible=1;marginBottom=0;whiteSpace=wrap;html=1;" vertex="1" parent="1">
          <mxGeometry x="996" y="292" width="247" height="151" as="geometry" />
        </mxCell>
        <mxCell id="p4eUYUYx2-gPYo4XAFMZ-34" value="+ getHistoryList(patientId)&amp;nbsp;&lt;div&gt;+ getVisitDetail(visitId)&lt;/div&gt;" style="text;strokeColor=none;fillColor=none;align=left;verticalAlign=top;spacingLeft=4;spacingRight=4;overflow=hidden;rotatable=0;points=[[0,0.5],[1,0.5]];portConstraint=eastwest;whiteSpace=wrap;html=1;" vertex="1" parent="p4eUYUYx2-gPYo4XAFMZ-33">
          <mxGeometry y="26" width="247" height="44" as="geometry" />
        </mxCell>
        <mxCell id="p4eUYUYx2-gPYo4XAFMZ-35" value="" style="line;strokeWidth=1;fillColor=none;align=left;verticalAlign=middle;spacingTop=-1;spacingLeft=3;spacingRight=3;rotatable=0;labelPosition=right;points=[];portConstraint=eastwest;strokeColor=inherit;" vertex="1" parent="p4eUYUYx2-gPYo4XAFMZ-33">
          <mxGeometry y="70" width="247" height="4" as="geometry" />
        </mxCell>
        <mxCell id="p4eUYUYx2-gPYo4XAFMZ-36" value="- visitRecordService&lt;div&gt;- patientService&lt;/div&gt;&lt;div&gt;- prescriptionService&lt;/div&gt;&lt;div&gt;- labReportService&lt;/div&gt;" style="text;strokeColor=none;fillColor=none;align=left;verticalAlign=top;spacingLeft=4;spacingRight=4;overflow=hidden;rotatable=0;points=[[0,0.5],[1,0.5]];portConstraint=eastwest;whiteSpace=wrap;html=1;" vertex="1" parent="p4eUYUYx2-gPYo4XAFMZ-33">
          <mxGeometry y="74" width="247" height="77" as="geometry" />
        </mxCell>
        <mxCell id="p4eUYUYx2-gPYo4XAFMZ-37" value="VisitRecordSummary " style="swimlane;fontStyle=1;align=center;verticalAlign=top;childLayout=stackLayout;horizontal=1;startSize=26;horizontalStack=0;resizeParent=1;resizeParentMax=0;resizeLast=0;collapsible=1;marginBottom=0;whiteSpace=wrap;html=1;" vertex="1" parent="1">
          <mxGeometry x="1310" y="187" width="154" height="143" as="geometry" />
        </mxCell>
        <mxCell id="p4eUYUYx2-gPYo4XAFMZ-38" value="" style="line;strokeWidth=1;fillColor=none;align=left;verticalAlign=middle;spacingTop=-1;spacingLeft=3;spacingRight=3;rotatable=0;labelPosition=right;points=[];portConstraint=eastwest;strokeColor=inherit;" vertex="1" parent="p4eUYUYx2-gPYo4XAFMZ-37">
          <mxGeometry y="26" width="154" height="17" as="geometry" />
        </mxCell>
        <mxCell id="p4eUYUYx2-gPYo4XAFMZ-39" value="- visitId&lt;div&gt;- visitDate&lt;/div&gt;&lt;div&gt;- departmentName&lt;/div&gt;&lt;div&gt;- doctorName&lt;/div&gt;&lt;div&gt;- primaryDiagnosis&lt;/div&gt;" style="text;strokeColor=none;fillColor=none;align=left;verticalAlign=top;spacingLeft=4;spacingRight=4;overflow=hidden;rotatable=0;points=[[0,0.5],[1,0.5]];portConstraint=eastwest;whiteSpace=wrap;html=1;" vertex="1" parent="p4eUYUYx2-gPYo4XAFMZ-37">
          <mxGeometry y="43" width="154" height="100" as="geometry" />
        </mxCell>
        <mxCell id="p4eUYUYx2-gPYo4XAFMZ-40" value="VisitRecordDetail " style="swimlane;fontStyle=1;align=center;verticalAlign=top;childLayout=stackLayout;horizontal=1;startSize=26;horizontalStack=0;resizeParent=1;resizeParentMax=0;resizeLast=0;collapsible=1;marginBottom=0;whiteSpace=wrap;html=1;" vertex="1" parent="1">
          <mxGeometry x="1319" y="399" width="154" height="148" as="geometry" />
        </mxCell>
        <mxCell id="p4eUYUYx2-gPYo4XAFMZ-41" value="" style="line;strokeWidth=1;fillColor=none;align=left;verticalAlign=middle;spacingTop=-1;spacingLeft=3;spacingRight=3;rotatable=0;labelPosition=right;points=[];portConstraint=eastwest;strokeColor=inherit;" vertex="1" parent="p4eUYUYx2-gPYo4XAFMZ-40">
          <mxGeometry y="26" width="154" height="17" as="geometry" />
        </mxCell>
        <mxCell id="p4eUYUYx2-gPYo4XAFMZ-42" value="- visitId&lt;div&gt;- patientInfo&lt;/div&gt;&lt;div&gt;- chiefComplaint&lt;/div&gt;&lt;div&gt;- diagnosisDetails&lt;/div&gt;&lt;div&gt;- prescriptionList&lt;/div&gt;&lt;div&gt;- labReportList&lt;/div&gt;" style="text;strokeColor=none;fillColor=none;align=left;verticalAlign=top;spacingLeft=4;spacingRight=4;overflow=hidden;rotatable=0;points=[[0,0.5],[1,0.5]];portConstraint=eastwest;whiteSpace=wrap;html=1;" vertex="1" parent="p4eUYUYx2-gPYo4XAFMZ-40">
          <mxGeometry y="43" width="154" height="105" as="geometry" />
        </mxCell>
      </root>
    </mxGraphModel>
  </diagram>
</mxfile>
